<svg width="30" height="30" viewBox="0 0 30 30" fill="none" xmlns="http://www.w3.org/2000/svg">
<path d="M15 16.575L19.8375 21.4125C20.0625 21.6375 20.325 21.75 20.625 21.75C20.925 21.75 21.1875 21.6375 21.4125 21.4125C21.6375 21.1875 21.75 20.925 21.75 20.625C21.75 20.325 21.6375 20.0625 21.4125 19.8375L16.575 15L21.4125 10.1625C21.6375 9.9375 21.75 9.675 21.75 9.375C21.75 9.075 21.6375 8.8125 21.4125 8.5875C21.1875 8.3625 20.925 8.25 20.625 8.25C20.325 8.25 20.0625 8.3625 19.8375 8.5875L15 13.425L10.1625 8.5875C9.9375 8.3625 9.675 8.25 9.375 8.25C9.075 8.25 8.8125 8.3625 8.5875 8.5875C8.3625 8.8125 8.25 9.075 8.25 9.375C8.25 9.675 8.3625 9.9375 8.5875 10.1625L13.425 15L8.5875 19.8375C8.3625 20.0625 8.25 20.325 8.25 20.625C8.25 20.925 8.3625 21.1875 8.5875 21.4125C8.8125 21.6375 9.075 21.75 9.375 21.75C9.675 21.75 9.9375 21.6375 10.1625 21.4125L15 16.575ZM15 30C12.95 30 11.0125 29.6063 9.1875 28.8188C7.3625 28.0313 5.76875 26.9563 4.40625 25.5938C3.04375 24.2313 1.96875 22.6375 1.18125 20.8125C0.39375 18.9875 0 17.05 0 15C0 12.925 0.39375 10.975 1.18125 9.15C1.96875 7.325 3.04375 5.7375 4.40625 4.3875C5.76875 3.0375 7.3625 1.96875 9.1875 1.18125C11.0125 0.39375 12.95 0 15 0C17.075 0 19.025 0.39375 20.85 1.18125C22.675 1.96875 24.2625 3.0375 25.6125 4.3875C26.9625 5.7375 28.0313 7.325 28.8188 9.15C29.6063 10.975 30 12.925 30 15C30 17.05 29.6063 18.9875 28.8188 20.8125C28.0313 22.6375 26.9625 24.2313 25.6125 25.5938C24.2625 26.9563 22.675 28.0313 20.85 28.8188C19.025 29.6063 17.075 30 15 30ZM15 27.75C18.55 27.75 21.5625 26.5063 24.0375 24.0188C26.5125 21.5312 27.75 18.525 27.75 15C27.75 11.45 26.5125 8.4375 24.0375 5.9625C21.5625 3.4875 18.55 2.25 15 2.25C11.475 2.25 8.46875 3.4875 5.98125 5.9625C3.49375 8.4375 2.25 11.45 2.25 15C2.25 18.525 3.49375 21.5312 5.98125 24.0188C8.46875 26.5063 11.475 27.75 15 27.75Z" fill="#333333"/>
</svg>
